<svg id="visual" viewBox="0 0 900 600" width="900" height="600" xmlns="http://www.w3.org/2000/svg" xmlns:xlink="http://www.w3.org/1999/xlink" version="1.1"><path d="M0 91L13.7 87C27.3 83 54.7 75 82 70C109.3 65 136.7 63 163.8 66C191 69 218 77 245.2 80C272.3 83 299.7 81 327 80C354.3 79 381.7 79 409 83C436.3 87 463.7 95 491 92C518.3 89 545.7 75 573 75C600.3 75 627.7 89 654.8 94C682 99 709 95 736.2 85C763.3 75 790.7 59 818 51C845.3 43 872.7 43 886.3 43L900 43L900 0L886.3 0C872.7 0 845.3 0 818 0C790.7 0 763.3 0 736.2 0C709 0 682 0 654.8 0C627.7 0 600.3 0 573 0C545.7 0 518.3 0 491 0C463.7 0 436.3 0 409 0C381.7 0 354.3 0 327 0C299.7 0 272.3 0 245.2 0C218 0 191 0 163.8 0C136.7 0 109.3 0 82 0C54.7 0 27.3 0 13.7 0L0 0Z" fill="#79aafc"></path><path d="M0 205L13.7 201C27.3 197 54.7 189 82 184C109.3 179 136.7 177 163.8 180C191 183 218 191 245.2 194C272.3 197 299.7 195 327 200C354.3 205 381.7 217 409 221C436.3 225 463.7 221 491 218C518.3 215 545.7 213 573 206C600.3 199 627.7 187 654.8 189C682 191 709 207 736.2 201C763.3 195 790.7 167 818 151C845.3 135 872.7 131 886.3 129L900 127L900 41L886.3 41C872.7 41 845.3 41 818 49C790.7 57 763.3 73 736.2 83C709 93 682 97 654.8 92C627.7 87 600.3 73 573 73C545.7 73 518.3 87 491 90C463.7 93 436.3 85 409 81C381.7 77 354.3 77 327 78C299.7 79 272.3 81 245.2 78C218 75 191 67 163.8 64C136.7 61 109.3 63 82 68C54.7 73 27.3 81 13.7 85L0 89Z" fill="#5b96fa"></path><path d="M0 409L13.7 394C27.3 379 54.7 349 82 337C109.3 325 136.7 331 163.8 332C191 333 218 329 245.2 318C272.3 307 299.7 289 327 294C354.3 299 381.7 327 409 354C436.3 381 463.7 407 491 405C518.3 403 545.7 373 573 354C600.3 335 627.7 327 654.8 333C682 339 709 359 736.2 367C763.3 375 790.7 371 818 356C845.3 341 872.7 315 886.3 302L900 289L900 125L886.3 127C872.7 129 845.3 133 818 149C790.7 165 763.3 193 736.2 199C709 205 682 189 654.8 187C627.7 185 600.3 197 573 204C545.7 211 518.3 213 491 216C463.7 219 436.3 223 409 219C381.7 215 354.3 203 327 198C299.7 193 272.3 195 245.2 192C218 189 191 181 163.8 178C136.7 175 109.3 177 82 182C54.7 187 27.3 195 13.7 199L0 203Z" fill="#3882f6"></path><path d="M0 511L13.7 507C27.3 503 54.7 495 82 496C109.3 497 136.7 507 163.8 516C191 525 218 533 245.2 534C272.3 535 299.7 529 327 527C354.3 525 381.7 527 409 529C436.3 531 463.7 533 491 535C518.3 537 545.7 539 573 541C600.3 543 627.7 545 654.8 548C682 551 709 555 736.2 551C763.3 547 790.7 535 818 523C845.3 511 872.7 499 886.3 493L900 487L900 287L886.3 300C872.7 313 845.3 339 818 354C790.7 369 763.3 373 736.2 365C709 357 682 337 654.8 331C627.7 325 600.3 333 573 352C545.7 371 518.3 401 491 403C463.7 405 436.3 379 409 352C381.7 325 354.3 297 327 292C299.7 287 272.3 305 245.2 316C218 327 191 331 163.8 330C136.7 329 109.3 323 82 335C54.7 347 27.3 377 13.7 392L0 407Z" fill="#3070d7"></path><path d="M0 601L13.7 601C27.3 601 54.7 601 82 601C109.3 601 136.7 601 163.8 601C191 601 218 601 245.2 601C272.3 601 299.7 601 327 601C354.3 601 381.7 601 409 601C436.3 601 463.7 601 491 601C518.3 601 545.7 601 573 601C600.3 601 627.7 601 654.8 601C682 601 709 601 736.2 601C763.3 601 790.7 601 818 601C845.3 601 872.7 601 886.3 601L900 601L900 485L886.3 491C872.7 497 845.3 509 818 521C790.7 533 763.3 545 736.2 549C709 553 682 549 654.8 546C627.7 543 600.3 541 573 539C545.7 537 518.3 535 491 533C463.7 531 436.3 529 409 527C381.7 525 354.3 523 327 525C299.7 527 272.3 533 245.2 532C218 531 191 523 163.8 514C136.7 505 109.3 495 82 494C54.7 493 27.3 501 13.7 505L0 509Z" fill="#275eb8"></path></svg>