<svg id="visual" viewBox="0 0 900 600" width="900" height="600" xmlns="http://www.w3.org/2000/svg" xmlns:xlink="http://www.w3.org/1999/xlink" version="1.1"><rect x="0" y="0" width="900" height="600" fill="#dddddd"></rect><path d="M0 380L21.5 391C43 402 86 424 128.8 434C171.7 444 214.3 442 257.2 437.3C300 432.7 343 425.3 385.8 412.8C428.7 400.3 471.3 382.7 514.2 378C557 373.3 600 381.7 642.8 391.2C685.7 400.7 728.3 411.3 771.2 406.8C814 402.3 857 382.7 878.5 372.8L900 363L900 601L878.5 601C857 601 814 601 771.2 601C728.3 601 685.7 601 642.8 601C600 601 557 601 514.2 601C471.3 601 428.7 601 385.8 601C343 601 300 601 257.2 601C214.3 601 171.7 601 128.8 601C86 601 43 601 21.5 601L0 601Z" fill="#79aafc"></path><path d="M0 407L21.5 408.3C43 409.7 86 412.3 128.8 410.5C171.7 408.7 214.3 402.3 257.2 403.3C300 404.3 343 412.7 385.8 417.5C428.7 422.3 471.3 423.7 514.2 422.7C557 421.7 600 418.3 642.8 425.7C685.7 433 728.3 451 771.2 454C814 457 857 445 878.5 439L900 433L900 601L878.5 601C857 601 814 601 771.2 601C728.3 601 685.7 601 642.8 601C600 601 557 601 514.2 601C471.3 601 428.7 601 385.8 601C343 601 300 601 257.2 601C214.3 601 171.7 601 128.8 601C86 601 43 601 21.5 601L0 601Z" fill="#5b96fa"></path><path d="M0 487L21.5 487.7C43 488.3 86 489.7 128.8 481.7C171.7 473.7 214.3 456.3 257.2 457.8C300 459.3 343 479.7 385.8 480.7C428.7 481.7 471.3 463.3 514.2 462.2C557 461 600 477 642.8 487.7C685.7 498.3 728.3 503.7 771.2 502C814 500.3 857 491.7 878.5 487.3L900 483L900 601L878.5 601C857 601 814 601 771.2 601C728.3 601 685.7 601 642.8 601C600 601 557 601 514.2 601C471.3 601 428.7 601 385.8 601C343 601 300 601 257.2 601C214.3 601 171.7 601 128.8 601C86 601 43 601 21.5 601L0 601Z" fill="#3882f6"></path><path d="M0 504L21.5 510.3C43 516.7 86 529.3 128.8 525.3C171.7 521.3 214.3 500.7 257.2 498.5C300 496.3 343 512.7 385.8 522.8C428.7 533 471.3 537 514.2 529.7C557 522.3 600 503.7 642.8 497.2C685.7 490.7 728.3 496.3 771.2 503.7C814 511 857 520 878.5 524.5L900 529L900 601L878.5 601C857 601 814 601 771.2 601C728.3 601 685.7 601 642.8 601C600 601 557 601 514.2 601C471.3 601 428.7 601 385.8 601C343 601 300 601 257.2 601C214.3 601 171.7 601 128.8 601C86 601 43 601 21.5 601L0 601Z" fill="#3070d7"></path><path d="M0 527L21.5 526.5C43 526 86 525 128.8 526C171.7 527 214.3 530 257.2 530C300 530 343 527 385.8 530.3C428.7 533.7 471.3 543.3 514.2 551.5C557 559.7 600 566.3 642.8 567C685.7 567.7 728.3 562.3 771.2 555.3C814 548.3 857 539.7 878.5 535.3L900 531L900 601L878.5 601C857 601 814 601 771.2 601C728.3 601 685.7 601 642.8 601C600 601 557 601 514.2 601C471.3 601 428.7 601 385.8 601C343 601 300 601 257.2 601C214.3 601 171.7 601 128.8 601C86 601 43 601 21.5 601L0 601Z" fill="#275eb8"></path></svg>