<svg id="visual" viewBox="0 0 900 600" width="900" height="600" xmlns="http://www.w3.org/2000/svg" xmlns:xlink="http://www.w3.org/1999/xlink" version="1.1"><g stroke-width="1" stroke-linejoin="bevel"><path d="M469 307L335 325L479 385Z" fill="#d9d9d9" stroke="#d9d9d9"></path><path d="M335 325L404 435L479 385Z" fill="#bebebe" stroke="#bebebe"></path><path d="M469 307L363 286L335 325Z" fill="#d9d9d9" stroke="#d9d9d9"></path><path d="M335 325L297 380L404 435Z" fill="#b0b0b0" stroke="#b0b0b0"></path><path d="M318 475L384 495L404 435Z" fill="#cccccc" stroke="#cccccc"></path><path d="M404 435L519 523L479 385Z" fill="#d6d6d6" stroke="#d6d6d6"></path><path d="M393 177L317 237L363 286Z" fill="#d2d2d2" stroke="#d2d2d2"></path><path d="M363 286L317 237L335 325Z" fill="#d2d2d2" stroke="#d2d2d2"></path><path d="M335 325L174 271L297 380Z" fill="#d2d2d2" stroke="#d2d2d2"></path><path d="M297 380L318 475L404 435Z" fill="#cccccc" stroke="#cccccc"></path><path d="M566 193L471 199L469 307Z" fill="#d6d6d6" stroke="#d6d6d6"></path><path d="M469 307L471 199L363 286Z" fill="#bebebe" stroke="#bebebe"></path><path d="M471 199L393 177L363 286Z" fill="#b0b0b0" stroke="#b0b0b0"></path><path d="M384 495L519 523L404 435Z" fill="#d6d6d6" stroke="#d6d6d6"></path><path d="M479 385L622 305L469 307Z" fill="#a9a9a9" stroke="#a9a9a9"></path><path d="M627 426L622 305L479 385Z" fill="#d9d9d9" stroke="#d9d9d9"></path><path d="M622 305L566 193L469 307Z" fill="#cfcfcf" stroke="#cfcfcf"></path><path d="M527 93L369 116L393 177Z" fill="#b0b0b0" stroke="#b0b0b0"></path><path d="M519 523L627 426L479 385Z" fill="#d2d2d2" stroke="#d2d2d2"></path><path d="M174 271L173 387L297 380Z" fill="#cccccc" stroke="#cccccc"></path><path d="M297 380L187 473L318 475Z" fill="#d9d9d9" stroke="#d9d9d9"></path><path d="M393 177L300 107L317 237Z" fill="#cfcfcf" stroke="#cfcfcf"></path><path d="M317 237L174 271L335 325Z" fill="#a9a9a9" stroke="#a9a9a9"></path><path d="M527 93L393 177L471 199Z" fill="#b7b7b7" stroke="#b7b7b7"></path><path d="M300 107L205 219L317 237Z" fill="#a9a9a9" stroke="#a9a9a9"></path><path d="M272 600L404 600L384 495Z" fill="#d2d2d2" stroke="#d2d2d2"></path><path d="M384 495L460 600L519 523Z" fill="#cccccc" stroke="#cccccc"></path><path d="M272 600L384 495L318 475Z" fill="#cfcfcf" stroke="#cfcfcf"></path><path d="M205 219L174 271L317 237Z" fill="#c5c5c5" stroke="#c5c5c5"></path><path d="M173 387L187 473L297 380Z" fill="#cfcfcf" stroke="#cfcfcf"></path><path d="M404 600L460 600L384 495Z" fill="#d9d9d9" stroke="#d9d9d9"></path><path d="M519 523L638 466L627 426Z" fill="#cfcfcf" stroke="#cfcfcf"></path><path d="M637 600L638 466L519 523Z" fill="#bebebe" stroke="#bebebe"></path><path d="M627 426L688 306L622 305Z" fill="#d9d9d9" stroke="#d9d9d9"></path><path d="M369 116L300 107L393 177Z" fill="#d2d2d2" stroke="#d2d2d2"></path><path d="M187 473L272 600L318 475Z" fill="#c5c5c5" stroke="#c5c5c5"></path><path d="M173 387L128 392L187 473Z" fill="#cccccc" stroke="#cccccc"></path><path d="M187 473L175 600L272 600Z" fill="#a9a9a9" stroke="#a9a9a9"></path><path d="M174 271L128 392L173 387Z" fill="#b7b7b7" stroke="#b7b7b7"></path><path d="M738 409L688 306L627 426Z" fill="#cccccc" stroke="#cccccc"></path><path d="M622 305L675 222L566 193Z" fill="#d6d6d6" stroke="#d6d6d6"></path><path d="M621 113L527 93L566 193Z" fill="#b7b7b7" stroke="#b7b7b7"></path><path d="M566 193L527 93L471 199Z" fill="#bebebe" stroke="#bebebe"></path><path d="M369 116L326 0L300 107Z" fill="#a9a9a9" stroke="#a9a9a9"></path><path d="M688 306L675 222L622 305Z" fill="#d9d9d9" stroke="#d9d9d9"></path><path d="M326 0L232 103L300 107Z" fill="#d2d2d2" stroke="#d2d2d2"></path><path d="M300 107L232 103L205 219Z" fill="#b0b0b0" stroke="#b0b0b0"></path><path d="M205 219L122 234L174 271Z" fill="#a9a9a9" stroke="#a9a9a9"></path><path d="M174 271L69 290L128 392Z" fill="#bebebe" stroke="#bebebe"></path><path d="M137 122L122 234L205 219Z" fill="#cfcfcf" stroke="#cfcfcf"></path><path d="M675 222L621 113L566 193Z" fill="#a9a9a9" stroke="#a9a9a9"></path><path d="M0 397L114 491L128 392Z" fill="#b0b0b0" stroke="#b0b0b0"></path><path d="M128 392L114 491L187 473Z" fill="#dcdcdc" stroke="#dcdcdc"></path><path d="M638 466L738 409L627 426Z" fill="#cccccc" stroke="#cccccc"></path><path d="M688 306L817 180L675 222Z" fill="#a9a9a9" stroke="#a9a9a9"></path><path d="M718 536L738 409L638 466Z" fill="#cccccc" stroke="#cccccc"></path><path d="M460 600L637 600L519 523Z" fill="#cccccc" stroke="#cccccc"></path><path d="M114 491L175 600L187 473Z" fill="#cfcfcf" stroke="#cfcfcf"></path><path d="M0 277L69 290L0 226Z" fill="#cccccc" stroke="#cccccc"></path><path d="M122 234L69 290L174 271Z" fill="#bebebe" stroke="#bebebe"></path><path d="M505 0L391 0L527 93Z" fill="#d2d2d2" stroke="#d2d2d2"></path><path d="M527 93L391 0L369 116Z" fill="#d2d2d2" stroke="#d2d2d2"></path><path d="M194 0L137 122L232 103Z" fill="#d9d9d9" stroke="#d9d9d9"></path><path d="M232 103L137 122L205 219Z" fill="#b7b7b7" stroke="#b7b7b7"></path><path d="M637 600L718 536L638 466Z" fill="#cccccc" stroke="#cccccc"></path><path d="M391 0L326 0L369 116Z" fill="#d9d9d9" stroke="#d9d9d9"></path><path d="M634 0L505 0L527 93Z" fill="#d6d6d6" stroke="#d6d6d6"></path><path d="M637 600L687 600L718 536Z" fill="#cfcfcf" stroke="#cfcfcf"></path><path d="M114 491L117 600L175 600Z" fill="#c5c5c5" stroke="#c5c5c5"></path><path d="M0 507L117 600L114 491Z" fill="#d9d9d9" stroke="#d9d9d9"></path><path d="M791 480L810 382L738 409Z" fill="#cccccc" stroke="#cccccc"></path><path d="M738 409L810 382L688 306Z" fill="#bebebe" stroke="#bebebe"></path><path d="M675 222L695 60L621 113Z" fill="#b0b0b0" stroke="#b0b0b0"></path><path d="M791 480L738 409L718 536Z" fill="#cccccc" stroke="#cccccc"></path><path d="M834 600L791 480L718 536Z" fill="#d6d6d6" stroke="#d6d6d6"></path><path d="M0 277L0 397L69 290Z" fill="#c5c5c5" stroke="#c5c5c5"></path><path d="M69 290L0 397L128 392Z" fill="#b7b7b7" stroke="#b7b7b7"></path><path d="M798 138L695 60L675 222Z" fill="#bebebe" stroke="#bebebe"></path><path d="M621 113L634 0L527 93Z" fill="#a9a9a9" stroke="#a9a9a9"></path><path d="M326 0L194 0L232 103Z" fill="#cccccc" stroke="#cccccc"></path><path d="M0 226L69 290L122 234Z" fill="#d9d9d9" stroke="#d9d9d9"></path><path d="M0 226L122 234L137 122Z" fill="#d6d6d6" stroke="#d6d6d6"></path><path d="M900 419L824 325L810 382Z" fill="#c5c5c5" stroke="#c5c5c5"></path><path d="M810 382L824 325L688 306Z" fill="#d9d9d9" stroke="#d9d9d9"></path><path d="M695 60L634 0L621 113Z" fill="#d6d6d6" stroke="#d6d6d6"></path><path d="M0 81L0 226L137 122Z" fill="#d9d9d9" stroke="#d9d9d9"></path><path d="M0 397L0 507L114 491Z" fill="#bebebe" stroke="#bebebe"></path><path d="M824 325L817 180L688 306Z" fill="#cfcfcf" stroke="#cfcfcf"></path><path d="M817 180L798 138L675 222Z" fill="#dcdcdc" stroke="#dcdcdc"></path><path d="M695 60L687 0L634 0Z" fill="#cccccc" stroke="#cccccc"></path><path d="M803 0L687 0L695 60Z" fill="#bebebe" stroke="#bebebe"></path><path d="M194 0L115 0L137 122Z" fill="#cccccc" stroke="#cccccc"></path><path d="M0 507L0 600L117 600Z" fill="#d9d9d9" stroke="#d9d9d9"></path><path d="M115 0L0 81L137 122Z" fill="#b7b7b7" stroke="#b7b7b7"></path><path d="M687 600L834 600L718 536Z" fill="#d6d6d6" stroke="#d6d6d6"></path><path d="M791 480L900 419L810 382Z" fill="#cfcfcf" stroke="#cfcfcf"></path><path d="M900 504L900 419L791 480Z" fill="#d6d6d6" stroke="#d6d6d6"></path><path d="M824 325L900 265L817 180Z" fill="#b0b0b0" stroke="#b0b0b0"></path><path d="M900 419L900 265L824 325Z" fill="#d2d2d2" stroke="#d2d2d2"></path><path d="M817 180L900 182L798 138Z" fill="#cccccc" stroke="#cccccc"></path><path d="M834 600L900 504L791 480Z" fill="#a9a9a9" stroke="#a9a9a9"></path><path d="M900 265L900 182L817 180Z" fill="#dcdcdc" stroke="#dcdcdc"></path><path d="M798 138L803 0L695 60Z" fill="#bebebe" stroke="#bebebe"></path><path d="M900 74L803 0L798 138Z" fill="#dcdcdc" stroke="#dcdcdc"></path><path d="M115 0L0 0L0 81Z" fill="#a9a9a9" stroke="#a9a9a9"></path><path d="M834 600L900 600L900 504Z" fill="#d6d6d6" stroke="#d6d6d6"></path><path d="M900 182L900 74L798 138Z" fill="#c5c5c5" stroke="#c5c5c5"></path><path d="M900 74L900 0L803 0Z" fill="#cfcfcf" stroke="#cfcfcf"></path></g></svg>