<svg id="visual" viewBox="0 0 900 600" width="900" height="600" xmlns="http://www.w3.org/2000/svg" xmlns:xlink="http://www.w3.org/1999/xlink" version="1.1"><path d="M0 109L13.7 111C27.3 113 54.7 117 82 133C109.3 149 136.7 177 163.8 180C191 183 218 161 245.2 157C272.3 153 299.7 167 327 174C354.3 181 381.7 181 409 174C436.3 167 463.7 153 491 154C518.3 155 545.7 171 573 183C600.3 195 627.7 203 654.8 201C682 199 709 187 736.2 184C763.3 181 790.7 187 818 179C845.3 171 872.7 149 886.3 138L900 127L900 0L886.3 0C872.7 0 845.3 0 818 0C790.7 0 763.3 0 736.2 0C709 0 682 0 654.8 0C627.7 0 600.3 0 573 0C545.7 0 518.3 0 491 0C463.7 0 436.3 0 409 0C381.7 0 354.3 0 327 0C299.7 0 272.3 0 245.2 0C218 0 191 0 163.8 0C136.7 0 109.3 0 82 0C54.7 0 27.3 0 13.7 0L0 0Z" fill="#dcdcdc"></path><path d="M0 295L13.7 299C27.3 303 54.7 311 82 321C109.3 331 136.7 343 163.8 352C191 361 218 367 245.2 365C272.3 363 299.7 353 327 349C354.3 345 381.7 347 409 351C436.3 355 463.7 361 491 368C518.3 375 545.7 383 573 385C600.3 387 627.7 383 654.8 376C682 369 709 359 736.2 360C763.3 361 790.7 373 818 369C845.3 365 872.7 345 886.3 335L900 325L900 125L886.3 136C872.7 147 845.3 169 818 177C790.7 185 763.3 179 736.2 182C709 185 682 197 654.8 199C627.7 201 600.3 193 573 181C545.7 169 518.3 153 491 152C463.7 151 436.3 165 409 172C381.7 179 354.3 179 327 172C299.7 165 272.3 151 245.2 155C218 159 191 181 163.8 178C136.7 175 109.3 147 82 131C54.7 115 27.3 111 13.7 109L0 107Z" fill="#d4d4d4"></path><path d="M0 391L13.7 393C27.3 395 54.7 399 82 410C109.3 421 136.7 439 163.8 450C191 461 218 465 245.2 456C272.3 447 299.7 425 327 419C354.3 413 381.7 423 409 432C436.3 441 463.7 449 491 456C518.3 463 545.7 469 573 470C600.3 471 627.7 467 654.8 460C682 453 709 443 736.2 443C763.3 443 790.7 453 818 452C845.3 451 872.7 439 886.3 433L900 427L900 323L886.3 333C872.7 343 845.3 363 818 367C790.7 371 763.3 359 736.2 358C709 357 682 367 654.8 374C627.7 381 600.3 385 573 383C545.7 381 518.3 373 491 366C463.7 359 436.3 353 409 349C381.7 345 354.3 343 327 347C299.7 351 272.3 361 245.2 363C218 365 191 359 163.8 350C136.7 341 109.3 329 82 319C54.7 309 27.3 301 13.7 297L0 293Z" fill="#cccccc"></path><path d="M0 511L13.7 511C27.3 511 54.7 511 82 518C109.3 525 136.7 539 163.8 546C191 553 218 553 245.2 547C272.3 541 299.7 529 327 526C354.3 523 381.7 529 409 535C436.3 541 463.7 547 491 550C518.3 553 545.7 553 573 553C600.3 553 627.7 553 654.8 547C682 541 709 529 736.2 527C763.3 525 790.7 533 818 539C845.3 545 872.7 549 886.3 551L900 553L900 425L886.3 431C872.7 437 845.3 449 818 450C790.7 451 763.3 441 736.2 441C709 441 682 451 654.8 458C627.7 465 600.3 469 573 468C545.7 467 518.3 461 491 454C463.7 447 436.3 439 409 430C381.7 421 354.3 411 327 417C299.7 423 272.3 445 245.2 454C218 463 191 459 163.8 448C136.7 437 109.3 419 82 408C54.7 397 27.3 393 13.7 391L0 389Z" fill="#bababa"></path><path d="M0 601L13.7 601C27.3 601 54.7 601 82 601C109.3 601 136.7 601 163.8 601C191 601 218 601 245.2 601C272.3 601 299.7 601 327 601C354.3 601 381.7 601 409 601C436.3 601 463.7 601 491 601C518.3 601 545.7 601 573 601C600.3 601 627.7 601 654.8 601C682 601 709 601 736.2 601C763.3 601 790.7 601 818 601C845.3 601 872.7 601 886.3 601L900 601L900 551L886.3 549C872.7 547 845.3 543 818 537C790.7 531 763.3 523 736.2 525C709 527 682 539 654.8 545C627.7 551 600.3 551 573 551C545.7 551 518.3 551 491 548C463.7 545 436.3 539 409 533C381.7 527 354.3 521 327 524C299.7 527 272.3 539 245.2 545C218 551 191 551 163.8 544C136.7 537 109.3 523 82 516C54.7 509 27.3 509 13.7 509L0 509Z" fill="#a9a9a9"></path></svg>